<svg xmlns="http://www.w3.org/2000/svg" xmlns:xlink="http://www.w3.org/1999/xlink" width="500" zoomAndPan="magnify" viewBox="0 0 375 374.999991" height="500" preserveAspectRatio="xMidYMid meet" version="1.0"><defs><g/><clipPath id="29cbf8889d"><path d="M 65.539062 130 L 203 130 L 203 222 L 65.539062 222 Z M 65.539062 130 " clip-rule="nonzero"/></clipPath><clipPath id="44df241e2e"><path d="M 183 74.449219 L 303 74.449219 L 303 222 L 183 222 Z M 183 74.449219 " clip-rule="nonzero"/></clipPath></defs><g fill="#373737" fill-opacity="1"><g transform="translate(33.420939, 276.022796)"><g><path d="M 22.625 -24.460938 L 22.625 -31.425781 L 3.140625 -31.425781 L 3.140625 0 L 22.625 0 L 22.625 -6.964844 L 11.15625 -6.964844 L 11.15625 -12.257812 L 20.84375 -12.257812 L 20.84375 -19.167969 L 11.15625 -19.167969 L 11.15625 -24.460938 Z M 22.625 -24.460938 "/></g></g></g><g fill="#373737" fill-opacity="1"><g transform="translate(59.370178, 276.022796)"><g><path d="M 17.914062 0.417969 C 24.144531 0.417969 29.59375 -3.140625 32.261719 -8.378906 L 25.351562 -11.890625 C 23.988281 -9.164062 21.265625 -7.4375 17.914062 -7.4375 C 13.144531 -7.4375 9.585938 -10.945312 9.585938 -15.710938 C 9.585938 -20.480469 13.144531 -23.988281 17.914062 -23.988281 C 21.265625 -23.988281 23.988281 -22.257812 25.351562 -19.535156 L 32.261719 -23.046875 C 29.59375 -28.28125 24.144531 -31.84375 17.914062 -31.84375 C 8.957031 -31.84375 1.78125 -24.617188 1.78125 -15.710938 C 1.78125 -6.808594 8.957031 0.417969 17.914062 0.417969 Z M 17.914062 0.417969 "/></g></g></g><g fill="#373737" fill-opacity="1"><g transform="translate(94.429707, 276.022796)"><g><path d="M 17.914062 0.417969 C 26.816406 0.417969 34.042969 -6.808594 34.042969 -15.710938 C 34.042969 -24.617188 26.816406 -31.84375 17.914062 -31.84375 C 8.957031 -31.84375 1.78125 -24.617188 1.78125 -15.710938 C 1.78125 -6.808594 8.957031 0.417969 17.914062 0.417969 Z M 17.914062 -7.4375 C 13.144531 -7.4375 9.585938 -10.945312 9.585938 -15.710938 C 9.585938 -20.480469 13.144531 -23.988281 17.914062 -23.988281 C 22.625 -23.988281 26.1875 -20.480469 26.1875 -15.710938 C 26.1875 -10.945312 22.625 -7.4375 17.914062 -7.4375 Z M 17.914062 -7.4375 "/></g></g></g><g fill="#373737" fill-opacity="1"><g transform="translate(131.740632, 276.022796)"><g><path d="M 22.886719 -31.425781 L -0.472656 -31.425781 L -0.472656 -24.460938 L 7.226562 -24.460938 L 7.226562 0 L 15.1875 0 L 15.1875 -24.460938 L 22.886719 -24.460938 Z M 22.886719 -31.425781 "/></g></g></g><g fill="#373737" fill-opacity="1"><g transform="translate(155.700261, 276.022796)"><g><path d="M 16.183594 0.417969 C 23.726562 0.417969 29.644531 -4.136719 29.644531 -10.003906 L 29.644531 -31.425781 L 21.632812 -31.425781 L 21.632812 -11.523438 C 21.632812 -8.746094 19.222656 -6.546875 16.183594 -6.546875 C 13.144531 -6.546875 10.738281 -8.746094 10.738281 -11.523438 L 10.738281 -31.425781 L 2.722656 -31.425781 L 2.722656 -10.003906 C 2.722656 -4.136719 8.640625 0.417969 16.183594 0.417969 Z M 16.183594 0.417969 "/></g></g></g><g fill="#373737" fill-opacity="1"><g transform="translate(189.607907, 276.022796)"><g><path d="M 20.375 -12.464844 C 23.988281 -13.722656 26.503906 -17.230469 26.503906 -21.527344 C 26.503906 -26.972656 22.46875 -31.425781 16.863281 -31.425781 L 2.878906 -31.425781 L 2.878906 0 L 10.894531 0 L 10.894531 -11.523438 L 12.726562 -11.523438 L 20.058594 0 L 29.070312 0 Z M 15.554688 -17.964844 L 10.894531 -17.964844 L 10.894531 -24.460938 L 15.554688 -24.460938 C 17.441406 -24.460938 18.804688 -23.097656 18.804688 -21.210938 C 18.804688 -19.328125 17.441406 -17.964844 15.554688 -17.964844 Z M 15.554688 -17.964844 "/></g></g></g><g fill="#373737" fill-opacity="1"><g transform="translate(219.745786, 276.022796)"><g><path d="M 3.140625 0 L 11.15625 0 L 11.15625 -31.425781 L 3.140625 -31.425781 Z M 3.140625 0 "/></g></g></g><g fill="#373737" fill-opacity="1"><g transform="translate(235.53757, 276.022796)"><g><path d="M 13.144531 0.417969 C 19.167969 0.417969 24.355469 -3.089844 24.355469 -9.113281 C 24.355469 -21.054688 10.109375 -18.070312 10.109375 -22.835938 C 10.109375 -24.199219 11.15625 -24.824219 12.414062 -24.824219 C 13.984375 -24.824219 15.710938 -23.882812 17.390625 -22.101562 L 22.625 -27.183594 C 20.164062 -30.0625 16.445312 -31.84375 12.519531 -31.84375 C 7.542969 -31.84375 2.042969 -28.964844 2.042969 -22.257812 C 2.042969 -11.367188 16.339844 -13.984375 16.339844 -9.21875 C 16.339844 -7.960938 15.292969 -7.070312 13.25 -7.070312 C 10.527344 -7.070312 8.328125 -8.539062 7.226562 -10.894531 L 0.679688 -6.808594 C 2.777344 -2.828125 7.386719 0.417969 13.144531 0.417969 Z M 13.144531 0.417969 "/></g></g></g><g fill="#373737" fill-opacity="1"><g transform="translate(262.586322, 276.022796)"><g><path d="M 30.167969 -31.425781 L 20.84375 -11.417969 L 11.574219 -31.425781 L 2.878906 -31.425781 L 2.878906 0 L 10.894531 0 L 10.894531 -16.917969 L 18.699219 0 L 22.992188 0 L 30.796875 -16.8125 L 30.796875 0 L 38.808594 0 L 38.808594 -31.425781 Z M 30.167969 -31.425781 "/></g></g></g><g fill="#373737" fill-opacity="1"><g transform="translate(305.813695, 276.022796)"><g><path d="M 17.914062 0.417969 C 26.816406 0.417969 34.042969 -6.808594 34.042969 -15.710938 C 34.042969 -24.617188 26.816406 -31.84375 17.914062 -31.84375 C 8.957031 -31.84375 1.78125 -24.617188 1.78125 -15.710938 C 1.78125 -6.808594 8.957031 0.417969 17.914062 0.417969 Z M 17.914062 -7.4375 C 13.144531 -7.4375 9.585938 -10.945312 9.585938 -15.710938 C 9.585938 -20.480469 13.144531 -23.988281 17.914062 -23.988281 C 22.625 -23.988281 26.1875 -20.480469 26.1875 -15.710938 C 26.1875 -10.945312 22.625 -7.4375 17.914062 -7.4375 Z M 17.914062 -7.4375 "/></g></g></g><g fill="#373737" fill-opacity="1"><g transform="translate(43.15279, 296.244128)"><g><path d="M 6.007812 0.136719 C 8.007812 0.136719 9.738281 -0.976562 10.628906 -2.617188 L 9.191406 -3.386719 C 8.589844 -2.257812 7.394531 -1.523438 6.007812 -1.523438 C 3.988281 -1.523438 2.394531 -3.097656 2.394531 -5.132812 C 2.394531 -7.171875 3.988281 -8.746094 6.007812 -8.746094 C 7.394531 -8.746094 8.589844 -8.007812 9.191406 -6.878906 L 10.628906 -7.648438 C 9.738281 -9.292969 8.007812 -10.40625 6.007812 -10.40625 C 3.097656 -10.40625 0.734375 -8.042969 0.734375 -5.132812 C 0.734375 -2.226562 3.097656 0.136719 6.007812 0.136719 Z M 6.007812 0.136719 "/></g></g></g><g fill="#373737" fill-opacity="1"><g transform="translate(58.826342, 296.244128)"><g><path d="M 7.101562 -8.746094 L 7.101562 -10.269531 L 1.214844 -10.269531 L 1.214844 0 L 7.101562 0 L 7.101562 -1.523438 L 2.890625 -1.523438 L 2.890625 -4.363281 L 6.539062 -4.363281 L 6.539062 -5.902344 L 2.890625 -5.902344 L 2.890625 -8.746094 Z M 7.101562 -8.746094 "/></g></g></g><g fill="#373737" fill-opacity="1"><g transform="translate(71.354515, 296.244128)"><g><path d="M 5.886719 -4.464844 C 7.171875 -4.742188 8.113281 -5.871094 8.113281 -7.257812 C 8.113281 -8.933594 6.8125 -10.269531 5.152344 -10.269531 L 1.128906 -10.269531 L 1.128906 0 L 2.804688 0 L 2.804688 -4.3125 L 4.226562 -4.3125 L 6.949219 0 L 8.832031 0 Z M 2.804688 -5.765625 L 2.804688 -8.710938 L 4.945312 -8.710938 C 5.820312 -8.710938 6.46875 -8.113281 6.46875 -7.238281 C 6.46875 -6.367188 5.820312 -5.765625 4.945312 -5.765625 Z M 2.804688 -5.765625 "/></g></g></g><g fill="#373737" fill-opacity="1"><g transform="translate(84.771591, 296.244128)"><g><path d="M 7.136719 -10.269531 L 0.0351562 -10.269531 L 0.0351562 -8.710938 L 2.753906 -8.710938 L 2.753906 0 L 4.414062 0 L 4.414062 -8.710938 L 7.136719 -8.710938 Z M 7.136719 -10.269531 "/></g></g></g><g fill="#373737" fill-opacity="1"><g transform="translate(96.496328, 296.244128)"><g><path d="M 1.214844 0 L 2.890625 0 L 2.890625 -10.269531 L 1.214844 -10.269531 Z M 1.214844 0 "/></g></g></g><g fill="#373737" fill-opacity="1"><g transform="translate(105.144056, 296.244128)"><g><path d="M 7.101562 -8.746094 L 7.101562 -10.269531 L 1.214844 -10.269531 L 1.214844 0 L 2.890625 0 L 2.890625 -4.363281 L 6.539062 -4.363281 L 6.539062 -5.902344 L 2.890625 -5.902344 L 2.890625 -8.746094 Z M 7.101562 -8.746094 "/></g></g></g><g fill="#373737" fill-opacity="1"><g transform="translate(117.022645, 296.244128)"><g><path d="M 1.214844 0 L 2.890625 0 L 2.890625 -10.269531 L 1.214844 -10.269531 Z M 1.214844 0 "/></g></g></g><g fill="#373737" fill-opacity="1"><g transform="translate(125.670369, 296.244128)"><g><path d="M 6.007812 0.136719 C 8.007812 0.136719 9.738281 -0.976562 10.628906 -2.617188 L 9.191406 -3.386719 C 8.589844 -2.257812 7.394531 -1.523438 6.007812 -1.523438 C 3.988281 -1.523438 2.394531 -3.097656 2.394531 -5.132812 C 2.394531 -7.171875 3.988281 -8.746094 6.007812 -8.746094 C 7.394531 -8.746094 8.589844 -8.007812 9.191406 -6.878906 L 10.628906 -7.648438 C 9.738281 -9.292969 8.007812 -10.40625 6.007812 -10.40625 C 3.097656 -10.40625 0.734375 -8.042969 0.734375 -5.132812 C 0.734375 -2.226562 3.097656 0.136719 6.007812 0.136719 Z M 6.007812 0.136719 "/></g></g></g><g fill="#373737" fill-opacity="1"><g transform="translate(141.343925, 296.244128)"><g><path d="M 7.359375 0 L 9.171875 0 L 5.460938 -10.269531 L 3.59375 -10.269531 L -0.121094 0 L 1.695312 0 L 2.429688 -2.171875 L 6.621094 -2.171875 Z M 2.925781 -3.644531 L 4.535156 -8.4375 L 6.144531 -3.644531 Z M 2.925781 -3.644531 "/></g></g></g><g fill="#373737" fill-opacity="1"><g transform="translate(154.94905, 296.244128)"><g><path d="M 6.007812 -1.523438 C 3.988281 -1.523438 2.394531 -3.097656 2.394531 -5.132812 C 2.394531 -7.171875 3.988281 -8.746094 6.007812 -8.746094 C 7.394531 -8.746094 8.589844 -8.007812 9.191406 -6.878906 L 10.628906 -7.648438 C 9.738281 -9.292969 8.007812 -10.40625 6.007812 -10.40625 C 3.097656 -10.40625 0.734375 -8.042969 0.734375 -5.132812 C 0.734375 -2.378906 2.839844 -0.121094 5.527344 0.121094 L 4.929688 1.230469 L 5.578125 1.625 C 6.246094 1.335938 6.777344 1.539062 6.777344 2.085938 C 6.777344 2.445312 6.503906 2.738281 6.144531 2.738281 C 5.851562 2.738281 5.476562 2.550781 5.320312 2.308594 L 4.550781 2.585938 C 4.773438 3.132812 5.476562 3.558594 6.144531 3.558594 C 6.964844 3.558594 7.597656 2.910156 7.597656 2.085938 C 7.597656 1.230469 6.878906 0.683594 5.972656 0.855469 L 6.347656 0.121094 C 8.214844 0 9.789062 -1.078125 10.628906 -2.617188 L 9.191406 -3.386719 C 8.589844 -2.257812 7.394531 -1.523438 6.007812 -1.523438 Z M 6.007812 -1.523438 "/></g></g></g><g fill="#373737" fill-opacity="1"><g transform="translate(170.622606, 296.244128)"><g><path d="M 3.664062 -12.339844 C 3.816406 -12.339844 3.953125 -12.253906 4.089844 -12.03125 C 4.398438 -11.585938 4.808594 -11.261719 5.40625 -11.261719 C 6.433594 -11.261719 6.964844 -12.148438 6.964844 -13.28125 L 5.921875 -13.28125 C 5.921875 -12.648438 5.765625 -12.269531 5.390625 -12.269531 C 5.167969 -12.269531 5.046875 -12.425781 4.945312 -12.578125 C 4.65625 -12.988281 4.242188 -13.347656 3.628906 -13.347656 C 2.652344 -13.347656 2.070312 -12.492188 2.070312 -11.328125 L 3.113281 -11.328125 C 3.113281 -11.894531 3.285156 -12.339844 3.664062 -12.339844 Z M 7.359375 0 L 9.171875 0 L 5.460938 -10.269531 L 3.59375 -10.269531 L -0.121094 0 L 1.695312 0 L 2.429688 -2.171875 L 6.621094 -2.171875 Z M 2.925781 -3.644531 L 4.535156 -8.4375 L 6.144531 -3.644531 Z M 2.925781 -3.644531 "/></g></g></g><g fill="#373737" fill-opacity="1"><g transform="translate(184.227732, 296.244128)"><g><path d="M 6.007812 0.136719 C 8.914062 0.136719 11.277344 -2.226562 11.277344 -5.132812 C 11.277344 -8.042969 8.914062 -10.40625 6.007812 -10.40625 C 3.097656 -10.40625 0.734375 -8.042969 0.734375 -5.132812 C 0.734375 -2.226562 3.097656 0.136719 6.007812 0.136719 Z M 6.007812 -1.523438 C 3.988281 -1.523438 2.394531 -3.097656 2.394531 -5.132812 C 2.394531 -7.171875 3.988281 -8.746094 6.007812 -8.746094 C 8.042969 -8.746094 9.617188 -7.171875 9.617188 -5.132812 C 9.617188 -3.097656 8.042969 -1.523438 6.007812 -1.523438 Z M 6.007812 -1.523438 "/></g></g></g><g fill="#373737" fill-opacity="1"><g transform="translate(200.79019, 296.244128)"><g/></g></g><g fill="#373737" fill-opacity="1"><g transform="translate(209.455019, 296.244128)"><g><path d="M 7.101562 -8.746094 L 7.101562 -10.269531 L 1.214844 -10.269531 L 1.214844 0 L 7.101562 0 L 7.101562 -1.523438 L 2.890625 -1.523438 L 2.890625 -4.363281 L 6.539062 -4.363281 L 6.539062 -5.902344 L 2.890625 -5.902344 L 2.890625 -8.746094 Z M 7.101562 -8.746094 "/></g></g></g><g fill="#373737" fill-opacity="1"><g transform="translate(221.983197, 296.244128)"><g><path d="M 6.007812 0.136719 C 8.007812 0.136719 9.738281 -0.976562 10.628906 -2.617188 L 9.191406 -3.386719 C 8.589844 -2.257812 7.394531 -1.523438 6.007812 -1.523438 C 3.988281 -1.523438 2.394531 -3.097656 2.394531 -5.132812 C 2.394531 -7.171875 3.988281 -8.746094 6.007812 -8.746094 C 7.394531 -8.746094 8.589844 -8.007812 9.191406 -6.878906 L 10.628906 -7.648438 C 9.738281 -9.292969 8.007812 -10.40625 6.007812 -10.40625 C 3.097656 -10.40625 0.734375 -8.042969 0.734375 -5.132812 C 0.734375 -2.226562 3.097656 0.136719 6.007812 0.136719 Z M 6.007812 0.136719 "/></g></g></g><g fill="#373737" fill-opacity="1"><g transform="translate(237.656753, 296.244128)"><g><path d="M 6.007812 0.136719 C 8.914062 0.136719 11.277344 -2.226562 11.277344 -5.132812 C 11.277344 -8.042969 8.914062 -10.40625 6.007812 -10.40625 C 3.097656 -10.40625 0.734375 -8.042969 0.734375 -5.132812 C 0.734375 -2.226562 3.097656 0.136719 6.007812 0.136719 Z M 6.007812 -1.523438 C 3.988281 -1.523438 2.394531 -3.097656 2.394531 -5.132812 C 2.394531 -7.171875 3.988281 -8.746094 6.007812 -8.746094 C 8.042969 -8.746094 9.617188 -7.171875 9.617188 -5.132812 C 9.617188 -3.097656 8.042969 -1.523438 6.007812 -1.523438 Z M 6.007812 -1.523438 "/></g></g></g><g fill="#373737" fill-opacity="1"><g transform="translate(254.219211, 296.244128)"><g><path d="M 2.804688 -1.558594 L 2.804688 -10.269531 L 1.128906 -10.269531 L 1.128906 0 L 6.417969 0 L 6.417969 -1.558594 Z M 2.804688 -1.558594 "/></g></g></g><g fill="#373737" fill-opacity="1"><g transform="translate(265.277271, 296.244128)"><g><path d="M 5.375 -11.140625 L 6.433594 -11.140625 L 8.539062 -13.691406 L 6.878906 -13.691406 Z M 6.007812 0.136719 C 8.914062 0.136719 11.277344 -2.226562 11.277344 -5.132812 C 11.277344 -8.042969 8.914062 -10.40625 6.007812 -10.40625 C 3.097656 -10.40625 0.734375 -8.042969 0.734375 -5.132812 C 0.734375 -2.226562 3.097656 0.136719 6.007812 0.136719 Z M 6.007812 -1.523438 C 3.988281 -1.523438 2.394531 -3.097656 2.394531 -5.132812 C 2.394531 -7.171875 3.988281 -8.746094 6.007812 -8.746094 C 8.042969 -8.746094 9.617188 -7.171875 9.617188 -5.132812 C 9.617188 -3.097656 8.042969 -1.523438 6.007812 -1.523438 Z M 6.007812 -1.523438 "/></g></g></g><g fill="#373737" fill-opacity="1"><g transform="translate(281.839729, 296.244128)"><g><path d="M 6.023438 -5.542969 L 6.023438 -4.140625 L 9.515625 -4.140625 C 9.105469 -2.601562 7.71875 -1.523438 6.039062 -1.523438 C 4.003906 -1.523438 2.414062 -3.097656 2.414062 -5.132812 C 2.414062 -7.171875 4.003906 -8.746094 6.039062 -8.746094 C 7.425781 -8.746094 8.609375 -8.007812 9.222656 -6.878906 L 10.660156 -7.648438 C 9.773438 -9.292969 8.027344 -10.40625 6.039062 -10.40625 C 3.113281 -10.40625 0.769531 -8.042969 0.769531 -5.132812 C 0.769531 -2.226562 3.113281 0.136719 6.039062 0.136719 C 8.949219 0.136719 11.3125 -2.226562 11.3125 -5.132812 L 11.3125 -5.542969 Z M 6.023438 -5.542969 "/></g></g></g><g fill="#373737" fill-opacity="1"><g transform="translate(298.453477, 296.244128)"><g><path d="M 1.214844 0 L 2.890625 0 L 2.890625 -10.269531 L 1.214844 -10.269531 Z M 1.214844 0 "/></g></g></g><g fill="#373737" fill-opacity="1"><g transform="translate(307.10121, 296.244128)"><g><path d="M 6.007812 0.136719 C 8.007812 0.136719 9.738281 -0.976562 10.628906 -2.617188 L 9.191406 -3.386719 C 8.589844 -2.257812 7.394531 -1.523438 6.007812 -1.523438 C 3.988281 -1.523438 2.394531 -3.097656 2.394531 -5.132812 C 2.394531 -7.171875 3.988281 -8.746094 6.007812 -8.746094 C 7.394531 -8.746094 8.589844 -8.007812 9.191406 -6.878906 L 10.628906 -7.648438 C 9.738281 -9.292969 8.007812 -10.40625 6.007812 -10.40625 C 3.097656 -10.40625 0.734375 -8.042969 0.734375 -5.132812 C 0.734375 -2.226562 3.097656 0.136719 6.007812 0.136719 Z M 6.007812 0.136719 "/></g></g></g><g fill="#373737" fill-opacity="1"><g transform="translate(322.774765, 296.244128)"><g><path d="M 7.359375 0 L 9.171875 0 L 5.460938 -10.269531 L 3.59375 -10.269531 L -0.121094 0 L 1.695312 0 L 2.429688 -2.171875 L 6.621094 -2.171875 Z M 2.925781 -3.644531 L 4.535156 -8.4375 L 6.144531 -3.644531 Z M 2.925781 -3.644531 "/></g></g></g><path fill="#84cc16" d="M 94.511719 217.898438 L 164.011719 166.039062 L 177.839844 176.410156 C 178.441406 174.144531 179.152344 171.765625 179.988281 169.496094 L 164.015625 155.070312 Z M 94.511719 217.898438 " fill-opacity="1" fill-rule="evenodd"/><g clip-path="url(#29cbf8889d)"><path fill="#84cc16" d="M 65.539062 221.710938 L 103.570312 186.539062 L 103.570312 156.023438 L 126.578125 156.023438 L 126.578125 165.324219 L 164.011719 130.75 L 183.085938 148.394531 C 188.089844 143.625 193.335938 138.734375 202.039062 133.015625 C 196.316406 141.007812 190.59375 148.992188 185.707031 157.457031 C 184.632812 159.601562 183.441406 161.746094 182.367188 164.011719 L 164.011719 146.964844 L 83.0625 221.710938 Z M 65.539062 221.710938 " fill-opacity="1" fill-rule="evenodd"/></g><g clip-path="url(#44df241e2e)"><path fill="#84cc16" d="M 198.105469 205.621094 C 150.179688 177.125 239.59375 121.929688 236.730469 74.480469 C 271.421875 97.847656 272.496094 138.382812 262.84375 159.722656 C 259.265625 167.589844 255.210938 174.144531 250.5625 179.75 C 269.039062 173.554688 290.734375 167.824219 299.558594 154.355469 C 309.453125 182.253906 293.125 205.855469 278.578125 213.964844 C 260.21875 224.214844 244.125 223.144531 228.746094 217.421875 C 246.035156 214.558594 265.46875 208.835938 284.539062 190.714844 C 253.300781 208.601562 233.390625 208.480469 218.019531 205.140625 C 242.21875 182.371094 246.867188 166.15625 250.207031 128.246094 C 246.390625 159.246094 215.035156 193.105469 198.105469 205.621094 Z M 198.105469 205.621094 " fill-opacity="1" fill-rule="evenodd"/></g><path fill="#84cc16" d="M 148.277344 190.480469 L 148.277344 203.472656 L 161.390625 203.472656 L 161.390625 190.480469 Z M 166.519531 208.71875 L 166.519531 221.710938 L 179.632812 221.710938 L 179.632812 208.71875 Z M 148.277344 208.71875 L 148.277344 221.710938 L 161.390625 221.710938 L 161.390625 208.71875 Z M 166.519531 190.480469 L 166.519531 203.472656 L 179.632812 203.472656 L 179.632812 190.480469 Z M 166.519531 190.480469 " fill-opacity="1" fill-rule="evenodd"/></svg>