<svg xmlns="http://www.w3.org/2000/svg" xmlns:xlink="http://www.w3.org/1999/xlink" width="500" zoomAndPan="magnify" viewBox="0 0 375 374.999991" height="500" preserveAspectRatio="xMidYMid meet" version="1.0"><defs><clipPath id="2365e8b1de"><path d="M 182 72.34375 L 365 72.34375 L 365 299 L 182 299 Z M 182 72.34375 " clip-rule="nonzero"/></clipPath></defs><path fill="#84cc16" d="M 44.542969 292.886719 L 151.394531 213.15625 L 172.65625 229.101562 C 173.582031 225.617188 174.671875 221.960938 175.960938 218.46875 L 151.402344 196.289062 Z M 44.542969 292.886719 " fill-opacity="1" fill-rule="evenodd"/><path fill="#84cc16" d="M 0 298.75 L 58.46875 244.671875 L 58.46875 197.757812 L 93.839844 197.757812 L 93.839844 212.054688 L 151.394531 158.902344 L 180.722656 186.027344 C 188.417969 178.699219 196.480469 171.179688 209.863281 162.386719 C 201.0625 174.667969 192.261719 186.945312 184.75 199.960938 C 183.101562 203.257812 181.269531 206.558594 179.617188 210.042969 L 151.394531 183.832031 L 26.945312 298.75 Z M 0 298.75 " fill-opacity="1" fill-rule="evenodd"/><g clip-path="url(#2365e8b1de)"><path fill="#84cc16" d="M 203.8125 274.007812 C 130.128906 230.199219 267.597656 145.339844 263.195312 72.394531 C 316.53125 108.316406 318.183594 170.632812 303.339844 203.445312 C 297.839844 215.539062 291.609375 225.617188 284.460938 234.238281 C 312.867188 224.710938 346.222656 215.902344 359.785156 195.191406 C 375 238.082031 349.894531 274.371094 327.535156 286.835938 C 299.304688 302.59375 274.5625 300.953125 250.921875 292.152344 C 277.5 287.753906 307.375 278.953125 336.699219 251.09375 C 288.671875 278.589844 258.0625 278.410156 234.429688 273.273438 C 271.632812 238.265625 278.78125 213.335938 283.914062 155.050781 C 278.046875 202.710938 229.839844 254.765625 203.8125 274.007812 Z M 203.8125 274.007812 " fill-opacity="1" fill-rule="evenodd"/></g><path fill="#84cc16" d="M 127.207031 250.730469 L 127.207031 270.707031 L 147.363281 270.707031 L 147.363281 250.730469 Z M 155.246094 278.773438 L 155.246094 298.75 L 175.414062 298.75 L 175.414062 278.773438 Z M 127.207031 278.773438 L 127.207031 298.75 L 147.363281 298.75 L 147.363281 278.773438 Z M 155.246094 250.730469 L 155.246094 270.707031 L 175.414062 270.707031 L 175.414062 250.730469 Z M 155.246094 250.730469 " fill-opacity="1" fill-rule="evenodd"/></svg>